<?xml version="1.0" encoding="UTF-8"?>
<svg xmlns="http://www.w3.org/2000/svg" xmlns:xlink="http://www.w3.org/1999/xlink" width="45pt" height="45pt" viewBox="0 0 45 45" version="1.1">
<g id="surface1">
<path style=" stroke:none;fill-rule:nonzero;fill:rgb(87.058824%,29.803922%,21.176471%);fill-opacity:1;" d="M 44.152344 20.496094 L 24.503906 0.847656 C 23.375 -0.28125 21.539062 -0.28125 20.40625 0.847656 L 16.324219 4.929688 L 21.5 10.105469 C 22.703125 9.699219 24.082031 9.96875 25.042969 10.929688 C 26.003906 11.894531 26.277344 13.285156 25.859375 14.492188 L 30.847656 19.480469 C 32.054688 19.0625 33.445312 19.332031 34.410156 20.296875 C 35.757812 21.644531 35.757812 23.828125 34.410156 25.175781 C 33.0625 26.523438 30.878906 26.523438 29.53125 25.175781 C 28.519531 24.160156 28.269531 22.671875 28.78125 21.421875 L 24.128906 16.773438 L 24.128906 29.011719 C 24.46875 29.179688 24.773438 29.398438 25.042969 29.664062 C 26.390625 31.011719 26.390625 33.195312 25.042969 34.542969 C 23.695312 35.890625 21.511719 35.890625 20.164062 34.542969 C 18.820312 33.195312 18.820312 31.011719 20.164062 29.664062 C 20.488281 29.34375 20.871094 29.085938 21.292969 28.914062 L 21.292969 16.558594 C 20.871094 16.386719 20.488281 16.128906 20.164062 15.804688 C 19.144531 14.785156 18.898438 13.289062 19.421875 12.035156 L 14.320312 6.933594 L 0.847656 20.402344 C -0.28125 21.535156 -0.28125 23.371094 0.847656 24.503906 L 20.496094 44.152344 C 21.628906 45.28125 23.460938 45.28125 24.59375 44.152344 L 44.152344 24.59375 C 45.28125 23.464844 45.28125 21.625 44.152344 20.496094 "/>
</g>
</svg>
