<?xml version="1.0" encoding="UTF-8"?>
<svg xmlns="http://www.w3.org/2000/svg" xmlns:xlink="http://www.w3.org/1999/xlink" width="46pt" height="45pt" viewBox="0 0 46 45" version="1.1">
<g id="surface1">
<path style=" stroke:none;fill-rule:nonzero;fill:rgb(8.627451%,8.627451%,7.843137%);fill-opacity:1;" d="M 22.910156 0 C 10.257812 0 0 10.316406 0 23.039062 C 0 33.21875 6.566406 41.855469 15.667969 44.902344 C 16.8125 45.117188 17.234375 44.402344 17.234375 43.792969 C 17.234375 43.246094 17.210938 41.429688 17.203125 39.503906 C 10.828125 40.898438 9.484375 36.785156 9.484375 36.785156 C 8.441406 34.121094 6.941406 33.414062 6.941406 33.414062 C 4.859375 31.984375 7.097656 32.015625 7.097656 32.015625 C 9.398438 32.175781 10.609375 34.386719 10.609375 34.386719 C 12.652344 37.910156 15.96875 36.890625 17.277344 36.304688 C 17.480469 34.8125 18.074219 33.796875 18.730469 33.222656 C 13.640625 32.640625 8.292969 30.664062 8.292969 21.835938 C 8.292969 19.320312 9.1875 17.265625 10.652344 15.652344 C 10.414062 15.070312 9.628906 12.730469 10.875 9.554688 C 10.875 9.554688 12.796875 8.9375 17.175781 11.917969 C 19.003906 11.40625 20.964844 11.148438 22.910156 11.140625 C 24.859375 11.148438 26.820312 11.40625 28.652344 11.917969 C 33.023438 8.9375 34.945312 9.554688 34.945312 9.554688 C 36.191406 12.730469 35.40625 15.070312 35.167969 15.652344 C 36.636719 17.265625 37.527344 19.320312 37.527344 21.835938 C 37.527344 30.683594 32.167969 32.632812 27.066406 33.203125 C 27.886719 33.917969 28.621094 35.320312 28.621094 37.472656 C 28.621094 40.554688 28.59375 43.035156 28.59375 43.792969 C 28.59375 44.40625 29.003906 45.125 30.167969 44.898438 C 39.265625 41.847656 45.820312 33.214844 45.820312 23.039062 C 45.820312 10.316406 35.5625 0 22.910156 0 "/>
<path style=" stroke:none;fill-rule:nonzero;fill:rgb(8.627451%,8.627451%,7.843137%);fill-opacity:1;" d="M 8.582031 32.820312 C 8.53125 32.933594 8.351562 32.96875 8.1875 32.890625 C 8.023438 32.816406 7.929688 32.660156 7.984375 32.542969 C 8.03125 32.425781 8.210938 32.394531 8.378906 32.472656 C 8.542969 32.546875 8.636719 32.707031 8.582031 32.820312 M 9.707031 33.832031 C 9.597656 33.933594 9.386719 33.886719 9.238281 33.726562 C 9.089844 33.566406 9.0625 33.351562 9.171875 33.246094 C 9.285156 33.144531 9.492188 33.191406 9.644531 33.351562 C 9.792969 33.515625 9.820312 33.730469 9.707031 33.832031 M 10.480469 35.125 C 10.339844 35.222656 10.109375 35.132812 9.96875 34.925781 C 9.828125 34.722656 9.828125 34.476562 9.972656 34.378906 C 10.113281 34.28125 10.339844 34.367188 10.484375 34.570312 C 10.625 34.78125 10.625 35.023438 10.480469 35.125 M 11.789062 36.625 C 11.664062 36.761719 11.394531 36.726562 11.199219 36.535156 C 11 36.351562 10.945312 36.085938 11.070312 35.945312 C 11.195312 35.808594 11.464844 35.847656 11.664062 36.035156 C 11.863281 36.222656 11.921875 36.488281 11.789062 36.625 M 13.476562 37.128906 C 13.421875 37.308594 13.164062 37.390625 12.90625 37.316406 C 12.648438 37.238281 12.476562 37.023438 12.53125 36.84375 C 12.582031 36.660156 12.84375 36.574219 13.105469 36.65625 C 13.363281 36.738281 13.53125 36.945312 13.480469 37.128906 M 15.402344 37.34375 C 15.410156 37.535156 15.1875 37.691406 14.914062 37.695312 C 14.640625 37.703125 14.421875 37.546875 14.417969 37.359375 C 14.417969 37.167969 14.632812 37.011719 14.90625 37.007812 C 15.179688 37.003906 15.402344 37.15625 15.402344 37.34375 M 17.289062 37.273438 C 17.324219 37.457031 17.132812 37.648438 16.863281 37.699219 C 16.597656 37.746094 16.351562 37.632812 16.316406 37.449219 C 16.285156 37.257812 16.476562 37.070312 16.742188 37.019531 C 17.015625 36.972656 17.257812 37.082031 17.289062 37.273438 "/>
</g>
</svg>
