<?xml version="1.0" encoding="UTF-8"?>
<svg xmlns="http://www.w3.org/2000/svg" xmlns:xlink="http://www.w3.org/1999/xlink" width="60pt" height="45pt" viewBox="0 0 60 45" version="1.1">
<g id="surface1">
<path style=" stroke:none;fill-rule:nonzero;fill:rgb(81.176471%,39.215686%,60.392157%);fill-opacity:1;" d="M 51.632812 25.851562 C 49.535156 25.863281 47.71875 26.367188 46.195312 27.117188 C 45.632812 26.003906 45.070312 25.03125 44.976562 24.304688 C 44.871094 23.460938 44.742188 22.945312 44.871094 21.9375 C 45 20.929688 45.585938 19.5 45.585938 19.382812 C 45.574219 19.277344 45.457031 18.761719 44.25 18.75 C 43.042969 18.738281 42 18.984375 41.882812 19.300781 C 41.765625 19.617188 41.53125 20.34375 41.378906 21.09375 C 41.167969 22.195312 38.964844 26.097656 37.710938 28.148438 C 37.300781 27.351562 36.949219 26.648438 36.878906 26.085938 C 36.773438 25.242188 36.644531 24.726562 36.773438 23.71875 C 36.902344 22.710938 37.488281 21.28125 37.488281 21.164062 C 37.476562 21.058594 37.359375 20.542969 36.152344 20.53125 C 34.945312 20.519531 33.902344 20.765625 33.785156 21.082031 C 33.667969 21.398438 33.539062 22.148438 33.28125 22.875 C 33.035156 23.601562 30.105469 30.117188 29.34375 31.816406 C 28.957031 32.683594 28.617188 33.375 28.371094 33.84375 C 28.125 34.3125 28.359375 33.878906 28.335938 33.925781 C 28.125 34.324219 28.007812 34.546875 28.007812 34.546875 L 28.007812 34.558594 C 27.84375 34.851562 27.667969 35.132812 27.585938 35.132812 C 27.527344 35.132812 27.410156 34.347656 27.609375 33.269531 C 28.042969 31.007812 29.097656 27.480469 29.085938 27.351562 C 29.085938 27.292969 29.285156 26.671875 28.40625 26.355469 C 27.550781 26.039062 27.246094 26.566406 27.175781 26.566406 C 27.105469 26.566406 27.046875 26.753906 27.046875 26.753906 C 27.046875 26.753906 27.996094 22.78125 25.230469 22.78125 C 23.496094 22.78125 21.105469 24.667969 19.921875 26.390625 C 19.171875 26.800781 17.578125 27.667969 15.890625 28.59375 C 15.246094 28.945312 14.578125 29.320312 13.945312 29.660156 L 13.816406 29.519531 C 10.464844 25.945312 4.265625 23.414062 4.523438 18.609375 C 4.617188 16.863281 5.226562 12.257812 16.429688 6.679688 C 25.605469 2.109375 32.953125 3.363281 34.230469 6.152344 C 36.046875 10.136719 30.304688 17.542969 20.765625 18.609375 C 17.132812 19.019531 15.222656 17.613281 14.742188 17.085938 C 14.238281 16.535156 14.167969 16.511719 13.980469 16.617188 C 13.675781 16.78125 13.863281 17.273438 13.980469 17.566406 C 14.261719 18.304688 15.433594 19.617188 17.425781 20.273438 C 19.171875 20.847656 23.4375 21.164062 28.59375 19.171875 C 34.371094 16.933594 38.882812 10.722656 37.558594 5.53125 C 36.210938 0.246094 27.445312 -1.488281 19.160156 1.453125 C 14.226562 3.210938 8.882812 5.953125 5.039062 9.550781 C 0.46875 13.816406 -0.257812 17.542969 0.046875 19.089844 C 1.113281 24.609375 8.71875 28.207031 11.765625 30.867188 C 11.613281 30.949219 11.472656 31.03125 11.34375 31.101562 C 9.820312 31.851562 4.019531 34.886719 2.566406 38.097656 C 0.925781 41.730469 2.824219 44.34375 4.089844 44.695312 C 8.003906 45.785156 12.011719 43.828125 14.179688 40.605469 C 16.335938 37.382812 16.078125 33.199219 15.082031 31.289062 L 15.046875 31.21875 L 16.242188 30.515625 C 17.015625 30.058594 17.777344 29.636719 18.445312 29.273438 C 18.070312 30.292969 17.800781 31.5 17.660156 33.257812 C 17.496094 35.320312 18.339844 37.992188 19.453125 39.046875 C 19.945312 39.503906 20.53125 39.515625 20.894531 39.515625 C 22.183594 39.515625 22.769531 38.449219 23.414062 37.171875 C 24.210938 35.613281 24.914062 33.808594 24.914062 33.808594 C 24.914062 33.808594 24.035156 38.695312 26.4375 38.695312 C 27.316406 38.695312 28.195312 37.558594 28.59375 36.972656 L 28.59375 36.984375 C 28.59375 36.984375 28.617188 36.949219 28.664062 36.867188 C 28.714844 36.792969 28.761719 36.71875 28.804688 36.644531 L 28.804688 36.621094 C 29.15625 36.011719 29.941406 34.617188 31.113281 32.308594 C 32.625 29.332031 34.078125 25.605469 34.078125 25.605469 C 34.078125 25.605469 34.21875 26.519531 34.652344 28.019531 C 34.910156 28.910156 35.472656 29.882812 35.90625 30.832031 C 35.554688 31.324219 35.34375 31.605469 35.34375 31.605469 L 35.355469 31.617188 C 35.074219 31.992188 34.757812 32.390625 34.429688 32.789062 C 33.234375 34.21875 31.804688 35.847656 31.617188 36.316406 C 31.394531 36.867188 31.441406 37.277344 31.875 37.605469 C 32.191406 37.839844 32.753906 37.886719 33.351562 37.839844 C 34.429688 37.769531 35.179688 37.5 35.554688 37.335938 C 36.140625 37.125 36.808594 36.808594 37.453125 36.339844 C 38.625 35.472656 39.339844 34.242188 39.269531 32.601562 C 39.234375 31.699219 38.941406 30.808594 38.578125 29.964844 C 38.683594 29.8125 38.789062 29.660156 38.894531 29.496094 C 40.746094 26.789062 42.175781 23.8125 42.175781 23.8125 C 42.175781 23.8125 42.316406 24.726562 42.75 26.226562 C 42.972656 26.988281 43.417969 27.820312 43.816406 28.640625 C 42.082031 30.058594 40.992188 31.699219 40.617188 32.777344 C 39.925781 34.769531 40.464844 35.671875 41.484375 35.882812 C 41.941406 35.976562 42.597656 35.765625 43.089844 35.554688 C 43.699219 35.355469 44.4375 35.015625 45.117188 34.511719 C 46.289062 33.644531 47.414062 32.4375 47.355469 30.808594 C 47.320312 30.058594 47.121094 29.320312 46.851562 28.617188 C 48.328125 28.007812 50.238281 27.65625 52.664062 27.949219 C 57.878906 28.558594 58.910156 31.816406 58.710938 33.175781 C 58.511719 34.535156 57.421875 35.285156 57.058594 35.519531 C 56.695312 35.742188 56.578125 35.824219 56.613281 35.988281 C 56.660156 36.234375 56.824219 36.222656 57.140625 36.175781 C 57.574219 36.105469 59.882812 35.0625 59.976562 32.554688 C 60.117188 29.332031 57.058594 25.816406 51.632812 25.851562 Z M 11.414062 39.410156 C 9.691406 41.296875 7.265625 42.011719 6.234375 41.402344 C 5.121094 40.757812 5.554688 37.980469 7.675781 35.976562 C 8.964844 34.757812 10.640625 33.632812 11.742188 32.941406 C 11.988281 32.789062 12.363281 32.566406 12.808594 32.296875 C 12.878906 32.25 12.925781 32.226562 12.925781 32.226562 C 13.007812 32.179688 13.101562 32.121094 13.195312 32.0625 C 13.980469 34.921875 13.230469 37.429688 11.414062 39.410156 Z M 24.011719 30.84375 C 23.414062 32.308594 22.148438 36.070312 21.386719 35.859375 C 20.730469 35.683594 20.332031 32.835938 21.257812 30.023438 C 21.726562 28.605469 22.722656 26.917969 23.308594 26.261719 C 24.257812 25.207031 25.289062 24.855469 25.546875 25.289062 C 25.851562 25.851562 24.386719 29.929688 24.011719 30.84375 Z M 34.40625 35.8125 C 34.148438 35.941406 33.914062 36.035156 33.808594 35.964844 C 33.726562 35.917969 33.914062 35.742188 33.914062 35.742188 C 33.914062 35.742188 35.214844 34.347656 35.730469 33.703125 C 36.023438 33.328125 36.375 32.894531 36.75 32.402344 L 36.75 32.542969 C 36.75 34.230469 35.132812 35.355469 34.40625 35.8125 Z M 42.421875 33.984375 C 42.234375 33.84375 42.257812 33.410156 42.890625 32.050781 C 43.136719 31.511719 43.699219 30.609375 44.671875 29.753906 C 44.789062 30.105469 44.859375 30.445312 44.847656 30.761719 C 44.835938 32.871094 43.335938 33.65625 42.421875 33.984375 Z M 42.421875 33.984375 "/>
</g>
</svg>
