<?xml version="1.0" standalone="no"?>
<!DOCTYPE svg PUBLIC "-//W3C//DTD SVG 20010904//EN"
 "http://www.w3.org/TR/2001/REC-SVG-20010904/DTD/svg10.dtd">
<svg version="1.0" xmlns="http://www.w3.org/2000/svg"
 width="417.000000pt" height="417.000000pt" viewBox="0 0 417.000000 417.000000"
 preserveAspectRatio="xMidYMid meet">
<metadata>
Created by potrace 1.14, written by Peter Selinger 2001-2017
</metadata>
<g transform="translate(0.000000,417.000000) scale(0.100000,-0.100000)"
fill="#000000" stroke="none">
<path d="M1917 3434 c-1 -1 -68 -5 -150 -9 -81 -3 -155 -8 -165 -9 -9 -2 -53
-7 -97 -11 -44 -4 -89 -9 -100 -11 -11 -2 -58 -8 -105 -14 -47 -5 -96 -12
-110 -15 -13 -3 -42 -7 -65 -10 -75 -11 -116 -26 -144 -53 -16 -15 -78 -121
-137 -237 -59 -115 -140 -272 -178 -347 -39 -75 -74 -134 -77 -130 -3 4 -11
26 -18 49 -22 77 -32 81 -268 82 -234 1 -247 -2 -278 -64 -25 -51 -30 -209 -8
-264 30 -75 35 -76 256 -76 108 0 197 -2 197 -5 0 -3 -18 -16 -40 -30 -27 -16
-49 -41 -65 -74 l-25 -49 0 -676 c0 -646 1 -678 19 -707 11 -17 32 -36 48 -41
46 -15 526 -10 556 6 42 22 50 51 51 183 l1 123 33 1 c18 1 36 5 41 10 4 5 31
68 61 139 29 72 59 144 66 160 7 17 20 47 28 68 9 21 25 41 38 45 13 5 382 8
820 8 692 -1 799 -3 811 -16 8 -8 24 -40 36 -70 13 -30 47 -116 78 -190 30
-74 59 -139 63 -144 5 -5 24 -9 42 -10 l33 -1 1 -123 c0 -131 9 -160 51 -183
34 -18 521 -20 563 -2 59 24 57 6 57 746 l0 678 -23 47 c-16 32 -38 57 -69 76
-25 16 -45 29 -45 30 0 1 92 1 204 1 164 1 207 4 221 15 34 28 45 76 45 187 0
119 -15 168 -59 189 -15 8 -96 12 -231 13 l-208 2 -30 -26 c-20 -17 -34 -41
-42 -74 l-11 -48 -78 151 c-43 83 -124 241 -181 351 -110 213 -120 229 -161
251 -36 18 -337 67 -494 79 -33 3 -76 7 -95 10 -86 12 -653 28 -663 19z m748
-268 c164 -14 292 -28 327 -37 35 -9 38 -13 81 -122 25 -61 98 -238 161 -391
64 -153 116 -282 116 -285 0 -4 -567 -6 -1260 -6 -839 0 -1260 3 -1259 10 0 5
73 185 162 399 130 312 166 390 182 393 106 19 214 30 380 39 72 3 132 8 134
10 7 6 894 -3 976 -10z m-1283 -1293 c41 -65 78 -123 81 -128 3 -7 -115 -10
-356 -10 l-362 0 -3 128 -3 127 284 0 284 0 75 -117z m2055 -10 l-2 -128 -362
0 c-358 0 -361 0 -351 20 6 11 42 68 80 128 l70 107 284 0 283 0 -2 -127z"/>
<path d="M1320 1370 c-17 -32 -150 -359 -150 -370 0 -6 52 -10 150 -10 l150 0
0 88 c0 89 8 112 40 112 37 -1 45 -17 47 -102 0 -46 2 -86 2 -91 1 -4 110 -6
244 -5 l242 3 0 81 c0 85 12 114 45 114 33 0 45 -29 45 -114 l0 -81 243 -3
242 -2 1 32 c0 18 0 56 -1 84 -1 55 16 84 50 84 30 0 40 -31 40 -119 l0 -81
150 0 c83 0 150 4 150 9 0 7 -55 145 -89 226 -14 31 -46 108 -58 135 l-10 25
-762 0 c-678 0 -764 -2 -771 -15z"/>
</g>
</svg>
